
<!-- Generator: visioncortex VTracer 0.6.4 -->
<svg version="1.1" xmlns="http://www.w3.org/2000/svg" viewBox="0 0 1024 1024" preserveAspectRatio="xMidYMid meet">
<path d="M0 0 C2.945 0.191 5.89 0.379 8.836 0.562 C9.527 0.606 10.218 0.65 10.93 0.695 C14.661 0.92 18.365 1.041 22.102 1 C23.264 1 24.427 1 25.625 1 C25.955 1.33 26.285 1.66 26.625 2 C28.183 2.274 29.751 2.494 31.32 2.691 C55.125 5.889 78.411 11.305 100.748 20.257 C103.538 21.361 106.362 22.367 109.188 23.375 C111.411 24.173 113.513 24.944 115.625 26 C116.615 26 117.605 26 118.625 26 C118.625 26.99 118.625 27.98 118.625 29 C119.892 29.371 119.892 29.371 121.184 29.75 C124.956 31.12 128.274 32.923 131.688 35 C132.339 35.394 132.99 35.789 133.661 36.195 C140.364 40.336 146.541 45.005 152.625 50 C153.498 50.706 154.37 51.413 155.27 52.141 C171.451 65.901 182.867 84.421 185 105.75 C184.425 110.731 183.23 115.782 180.254 119.895 C178.73 122.042 177.956 123.372 177.625 126 C179.129 129.371 181.115 132.298 183.195 135.328 C191.073 146.873 195.782 160.666 199.625 174 C199.967 175.173 200.308 176.346 200.66 177.555 C202.634 185.654 202.954 193.628 203.062 201.938 C203.085 202.985 203.107 204.032 203.13 205.111 C203.104 214.173 201.072 222.344 198.625 231 C200.372 231.113 200.372 231.113 202.154 231.228 C206.51 231.512 210.866 231.812 215.22 232.117 C217.099 232.246 218.977 232.371 220.856 232.492 C223.57 232.667 226.283 232.858 228.996 233.051 C229.825 233.101 230.653 233.151 231.507 233.203 C238.15 233.699 244.873 234.73 250.125 239.062 C253.289 245.259 253.202 252.177 251.496 258.836 C250.213 262.024 248.284 264.479 246.062 267.078 C242.331 272.068 241.856 277.951 240.875 283.938 C237.295 304.516 232.633 330.2 217.11 345.492 C214.067 348.568 212.224 350.791 212.127 355.218 C212.212 356.791 212.33 358.362 212.477 359.93 C212.556 361.212 212.556 361.212 212.637 362.52 C212.754 364.353 212.885 366.186 213.028 368.017 C213.406 372.877 213.673 377.744 213.961 382.609 C214.022 383.585 214.082 384.56 214.145 385.565 C217.023 432.554 216.57 488.444 191.625 530 C192.574 530.309 193.523 530.619 194.5 530.938 C197.625 532 197.625 532 199.625 533 C207.749 536.425 216.053 539.397 224.33 542.426 C257.276 554.493 290.166 566.671 322.625 580 C323.742 580.457 324.859 580.914 326.01 581.385 C346.661 589.898 369.027 599.699 385.625 615 C386.624 615.886 387.624 616.771 388.625 617.656 C405.401 632.628 416.895 650.388 425.625 671 C425.909 671.666 426.193 672.333 426.486 673.02 C447.83 724.235 455.334 782.795 463.435 837.267 C463.749 839.367 464.067 841.466 464.387 843.565 C464.987 847.507 465.561 851.452 466.133 855.398 C466.405 857.177 466.405 857.177 466.684 858.991 C466.916 860.642 466.916 860.642 467.153 862.326 C467.363 863.759 467.363 863.759 467.578 865.221 C467.635 868.558 466.915 870.935 465.625 874 C462.754 876.534 460.299 877.222 456.562 877.438 C452.625 877 452.625 877 450.25 875.562 C445.605 868.238 445.736 857.69 444.682 849.201 C439.014 781.572 439.014 781.572 419.603 718.051 C418.487 715.71 418.154 713.697 417.789 711.133 C416.592 704.124 414.348 697.572 412 690.875 C411.668 689.921 411.668 689.921 411.329 688.949 C406.374 674.775 400.925 661.592 392.191 649.32 C390.625 647 390.625 647 389.625 644 C388.965 644 388.305 644 387.625 644 C386.215 642.531 386.215 642.531 384.562 640.5 C366.154 619.042 335.793 604.377 309.625 595 C308.635 595 307.645 595 306.625 595 C306.625 594.34 306.625 593.68 306.625 593 C306.112 592.865 305.599 592.729 305.07 592.59 C298.156 590.646 291.535 588.086 284.872 585.426 C284.122 585.128 283.373 584.83 282.602 584.523 C281.932 584.255 281.263 583.986 280.573 583.708 C278.677 582.972 278.677 582.972 276.848 582.598 C274.146 581.871 271.682 580.822 269.11 579.721 C263.075 577.173 256.99 574.789 250.867 572.461 C249.264 571.85 249.264 571.85 247.627 571.226 C245.388 570.373 243.147 569.521 240.907 568.67 C237.5 567.375 234.096 566.074 230.691 564.773 C228.5 563.94 226.309 563.106 224.117 562.273 C223.113 561.889 222.108 561.505 221.073 561.108 C215.605 559.038 210.159 557.208 204.506 555.701 C202.625 555 202.625 555 201.625 553 C199.62 552.19 199.62 552.19 197.188 551.562 C196.294 551.31 195.401 551.057 194.48 550.797 C193.067 550.402 193.067 550.402 191.625 550 C189.749 549.441 187.874 548.879 186 548.312 C184.743 547.935 184.743 547.935 183.461 547.551 C182.855 547.369 182.249 547.187 181.625 547 C179.205 552.67 179.362 557.955 179.414 564.003 C179.415 565.102 179.416 566.2 179.418 567.331 C179.424 570.957 179.445 574.582 179.465 578.207 C179.471 580.733 179.476 583.259 179.481 585.784 C179.493 591.755 179.513 597.726 179.538 603.697 C179.584 615.008 179.617 626.32 179.642 637.631 C179.652 641.338 179.669 645.046 179.687 648.753 C179.694 651.038 179.7 653.323 179.707 655.609 C179.717 657.145 179.717 657.145 179.727 658.712 C179.751 674.109 179.751 674.109 176.875 678.938 C174.424 681.184 172.857 682.23 169.625 683 C165.071 682.59 162.418 681.523 158.812 678.75 C157.859 678.028 156.905 677.306 155.922 676.562 C154.822 675.71 153.723 674.856 152.625 674 C133.382 656.583 133.382 656.583 110.875 646.938 C106.101 648.498 103.178 651.537 99.625 655 C99.024 655.574 98.424 656.147 97.805 656.738 C94.664 659.802 91.83 662.97 89.062 666.375 C86.645 669.213 85.985 669.907 82.25 670.875 C81.384 670.916 80.518 670.957 79.625 671 C79.295 671.66 78.965 672.32 78.625 673 C78.625 672.34 78.625 671.68 78.625 671 C76.975 670.67 75.325 670.34 73.625 670 C73.625 669.34 73.625 668.68 73.625 668 C72.965 668 72.305 668 71.625 668 C70.437 664.812 70.437 664.812 69.625 661 C71.471 657.198 74.021 654.276 76.875 651.188 C80.181 647.614 80.181 647.614 83.312 643.891 C90.036 635.487 99.977 627.883 110.875 626.625 C115.134 627.051 118.366 628.3 122.266 629.996 C124.742 631.108 124.742 631.108 127.938 631.938 C130.76 633.053 132.013 634.41 134.084 636.549 C137.107 639.395 140.588 641.65 144 644 C145.466 645.021 146.932 646.042 148.398 647.062 C149.103 647.551 149.808 648.04 150.534 648.543 C153.584 650.668 156.605 652.833 159.625 655 C159.295 653.02 158.965 651.04 158.625 649 C159.285 649 159.945 649 160.625 649 C160 609.489 160 609.489 158.625 570 C157.993 570.566 157.993 570.566 157.349 571.143 C153.23 574.762 149.031 577.922 144.375 580.812 C143.698 581.235 143.02 581.657 142.322 582.092 C135.494 586.245 128.357 589.669 121.098 592.992 C120.361 593.331 119.625 593.67 118.866 594.019 C117.358 594.679 115.829 595.294 114.284 595.864 C108.007 598.278 104.973 601.531 101.188 607 C100.067 608.542 98.945 610.082 97.82 611.621 C97.007 612.748 97.007 612.748 96.177 613.898 C94.086 616.73 91.851 619.387 89.562 622.062 C84.184 628.437 79.217 635.082 74.265 641.789 C72.545 644.108 70.807 646.414 69.066 648.719 C61.967 658.165 55.357 667.661 49.625 678 C49.063 679.012 48.501 680.024 47.922 681.066 C37.695 700.461 35.104 720.451 35.344 742.058 C35.375 744.866 35.385 747.673 35.391 750.48 C35.43 759.707 35.642 768.917 36.078 778.133 C36.135 779.385 36.135 779.385 36.194 780.663 C36.38 784.848 36.38 784.848 37.14 788.954 C37.693 791.286 37.722 793.335 37.69 795.731 C37.682 796.668 37.673 797.604 37.665 798.569 C37.653 799.58 37.641 800.591 37.629 801.633 C37.559 813.652 37.91 825.628 38.425 837.636 C38.566 840.95 38.696 844.264 38.826 847.578 C38.913 849.695 39.001 851.813 39.09 853.93 C39.148 855.409 39.148 855.409 39.207 856.918 C39.247 857.822 39.287 858.725 39.328 859.656 C39.378 860.846 39.378 860.846 39.429 862.061 C39.517 864.08 39.517 864.08 40.625 866 C40.28 870.71 39.512 874.798 36.688 878.625 C32.064 880.701 27.614 880.315 22.625 880 C20.492 874.88 20.238 869.983 19.969 864.512 C19.855 863.683 19.742 862.854 19.625 862 C18.965 861.67 18.305 861.34 17.625 861 C17.625 859.68 17.625 858.36 17.625 857 C18.285 857 18.945 857 19.625 857 C19.575 855.97 19.525 854.94 19.473 853.879 C18.991 843.945 18.521 834.011 18.06 824.076 C17.824 818.974 17.583 813.873 17.334 808.771 C16.314 787.863 15.435 766.961 15.327 746.026 C15.318 744.185 15.303 742.345 15.284 740.505 C15.136 724.782 16.108 708.858 21.875 694.062 C24.435 688.131 24.435 688.131 23.625 682 C22.635 681.67 21.645 681.34 20.625 681 C20.271 679.672 19.941 678.338 19.625 677 C18.182 674.979 18.182 674.979 16.375 673.062 C15.749 672.369 15.122 671.675 14.477 670.961 C12.934 669.328 11.366 667.747 9.75 666.188 C7.625 664 7.625 664 6.625 661 C5.305 660.308 3.969 659.644 2.625 659 C1.394 657.857 0.21 656.664 -0.938 655.438 C-5.738 650.511 -10.982 646.257 -16.375 642 C-17.062 641.423 -17.749 640.845 -18.457 640.25 C-20.388 638.628 -20.388 638.628 -23.375 637 C-47.76 644.228 -71.963 671.23 -90.688 687.812 C-91.293 688.336 -91.899 688.859 -92.523 689.398 C-93.879 690.571 -95.215 691.767 -96.539 692.977 C-100.128 696.072 -103.114 698.473 -107.938 698.938 C-112.785 698.501 -115.196 696.012 -118.336 692.484 C-119.009 691.665 -119.682 690.845 -120.375 690 C-121.13 689.098 -121.886 688.195 -122.664 687.266 C-124.209 685.395 -125.742 683.515 -127.262 681.625 C-130.484 677.622 -133.739 673.636 -137.375 670 C-138.303 668.792 -139.216 667.572 -140.117 666.344 C-143.129 662.294 -146.289 658.392 -149.5 654.5 C-168.989 630.67 -186.761 605.306 -203.018 579.179 C-204.25 577.201 -205.491 575.228 -206.734 573.258 C-217.375 556.257 -217.375 556.257 -217.375 552 C-218.035 551.67 -218.695 551.34 -219.375 551 C-222.375 544.769 -222.375 544.769 -222.375 541 C-247.821 552.251 -247.821 552.251 -273.141 563.779 C-280.558 567.196 -288.02 570.505 -295.492 573.802 C-366.691 602.807 -366.691 602.807 -412.375 661 C-434.875 719.425 -439.226 785.658 -443.778 847.539 C-443.919 849.415 -443.919 849.415 -444.062 851.329 C-444.237 853.664 -444.405 856 -444.565 858.336 C-445.6 872.225 -445.6 872.225 -449.375 876 C-451.328 876.555 -451.328 876.555 -453.625 876.875 C-454.373 876.996 -455.12 877.117 -455.891 877.242 C-459.665 876.874 -461.521 875.458 -464.375 873 C-464.938 870.063 -465.06 868.025 -464.902 865.102 C-464.88 864.282 -464.857 863.463 -464.834 862.619 C-464.376 849.846 -463.094 837.098 -461.938 824.375 C-461.477 819.216 -461.021 814.058 -460.566 808.898 C-460.458 807.677 -460.349 806.456 -460.236 805.198 C-459.522 797.064 -458.965 788.94 -458.601 780.784 C-458.375 778 -458.375 778 -457.375 777 C-457.114 775.681 -456.91 774.352 -456.73 773.02 C-456.612 772.167 -456.494 771.315 -456.373 770.437 C-456.185 769.031 -456.185 769.031 -455.992 767.598 C-455.714 765.589 -455.434 763.58 -455.154 761.571 C-454.934 759.978 -454.934 759.978 -454.709 758.353 C-438.103 639.24 -438.103 639.24 -392.992 603.969 C-392.129 603.319 -391.265 602.669 -390.375 602 C-389.635 601.433 -388.895 600.866 -388.133 600.281 C-356.607 577.155 -317.747 562.551 -282.109 546.957 C-272.901 542.923 -263.719 538.826 -254.535 534.736 C-253.06 534.079 -251.584 533.422 -250.107 532.765 C-248.667 532.124 -247.228 531.481 -245.789 530.837 C-242.154 529.214 -238.508 527.629 -234.833 526.1 C-234.1 525.791 -233.368 525.483 -232.614 525.165 C-231.226 524.582 -229.835 524.009 -228.44 523.446 C-222.078 520.758 -220.367 517.378 -217.781 511.203 C-217.308 510.079 -216.835 508.955 -216.348 507.797 C-215.862 506.626 -215.376 505.456 -214.875 504.25 C-214.389 503.095 -213.903 501.94 -213.402 500.75 C-210.94 494.872 -208.584 488.977 -206.375 483 C-205.295 480.84 -204.052 478.864 -202.758 476.824 C-202.233 475.996 -201.709 475.168 -201.168 474.314 C-200.342 473.014 -200.342 473.014 -199.5 471.688 C-198.419 469.983 -197.338 468.279 -196.258 466.574 C-195.497 465.375 -195.497 465.375 -194.721 464.151 C-193.67 462.471 -192.654 460.769 -191.652 459.059 C-189.939 456.297 -187.695 454.261 -185.375 452 C-183.039 448.496 -183.016 446.7 -182.777 442.539 C-182.698 441.263 -182.619 439.987 -182.537 438.672 C-182.462 437.323 -182.387 435.974 -182.312 434.625 C-182.16 431.992 -182 429.359 -181.84 426.727 C-181.774 425.557 -181.708 424.387 -181.64 423.182 C-181.406 420.377 -180.996 417.742 -180.375 415 C-182.231 414.691 -182.231 414.691 -184.125 414.375 C-195.505 411.83 -206.372 405.337 -213.375 396 C-216.205 392.958 -218.908 390.311 -222.375 388 C-222.375 387.34 -222.375 386.68 -222.375 386 C-223.41 384.257 -224.451 382.516 -225.525 380.796 C-241.141 355.681 -250.727 324.479 -244.586 294.883 C-242.927 288.178 -240.869 282.234 -237.23 276.344 C-235.046 270.358 -238.379 263.494 -240.375 257.75 C-240.648 256.948 -240.922 256.146 -241.203 255.32 C-241.708 253.84 -242.216 252.36 -242.727 250.882 C-243.91 247.447 -244.586 244.493 -244.875 240.875 C-245.148 237.507 -245.47 234.156 -245.867 230.801 C-247.35 217.586 -247.617 204.215 -247.062 190.938 C-247.011 189.574 -247.011 189.574 -246.958 188.183 C-246.714 183.441 -246.115 179.469 -244.375 175 C-244.014 173.339 -243.67 171.674 -243.375 170 C-244.365 169.67 -245.355 169.34 -246.375 169 C-244.223 138.514 -234.992 106.536 -211.5 85.312 C-207.636 82.065 -203.494 79.253 -199.281 76.48 C-198.652 75.992 -198.023 75.503 -197.375 75 C-197.375 74.34 -197.375 73.68 -197.375 73 C-196.674 72.897 -195.973 72.794 -195.25 72.688 C-191.987 71.907 -189.353 70.522 -186.375 69 C-185.715 69 -185.055 69 -184.375 69 C-184.375 68.34 -184.375 67.68 -184.375 67 C-183.384 65.991 -182.382 64.993 -181.375 64 C-179.277 61.13 -177.247 58.218 -175.215 55.301 C-174.608 54.542 -174.001 53.782 -173.375 53 C-172.715 53 -172.055 53 -171.375 53 C-170.973 52.116 -170.973 52.116 -170.562 51.215 C-159.059 29.76 -124.214 16.348 -102.496 9.684 C-95.047 7.545 -87.482 5.954 -79.864 4.545 C-78.911 4.368 -77.958 4.191 -76.977 4.008 C-76.134 3.86 -75.292 3.712 -74.424 3.559 C-72.171 3.126 -72.171 3.126 -70.375 1 C-68.005 0.84 -68.005 0.84 -65.051 0.938 C-57.425 1.065 -49.939 0.394 -42.35 -0.289 C-28.169 -1.484 -14.167 -0.932 0 0 Z M83.43 161.555 C80.625 163 80.625 163 77.816 163.934 C74.705 164.973 71.76 166.184 68.758 167.504 C67.638 167.993 66.518 168.481 65.364 168.985 C64.171 169.505 62.979 170.026 61.75 170.562 C48.86 176.14 35.867 181.313 22.625 186 C21.5 186.399 20.374 186.799 19.215 187.21 C-16.467 199.753 -53.524 209.099 -90.801 215.5 C-92.053 215.717 -93.306 215.934 -94.596 216.157 C-96.868 216.539 -99.143 216.902 -101.422 217.241 C-107.234 218.197 -110.732 219.001 -114.375 224 C-115.896 226.579 -115.896 226.579 -117 229.312 C-117.409 230.268 -117.817 231.223 -118.238 232.207 C-118.613 233.129 -118.989 234.05 -119.375 235 C-119.699 235.788 -120.022 236.575 -120.355 237.387 C-121.538 240.391 -122.375 242.745 -122.375 246 C-120.89 245.505 -120.89 245.505 -119.375 245 C-117.943 244.832 -116.507 244.698 -115.07 244.586 C-109.694 244.087 -104.421 243.204 -99.102 242.286 C-43.691 232.775 13.982 232.113 69.391 242.035 C70.256 242.188 71.121 242.341 72.012 242.498 C73.793 242.84 75.566 243.229 77.328 243.658 C84.681 245.339 90.065 244.432 97.25 242.375 C121.178 236.097 145.602 233.193 170.294 232.341 C173.983 232.208 177.486 232.023 181.133 231.41 C183.625 231 183.625 231 185.625 232 C185.097 205.593 178.713 173.825 159.895 154.164 C139.901 135.1 104.175 150.206 83.43 161.555 Z M-104.625 273.875 C-106.256 274.009 -106.256 274.009 -107.92 274.146 C-121.512 274.592 -121.512 274.592 -134.375 278 C-135.222 309.855 -132.289 342.111 -112.375 368 C-111.821 368.793 -111.266 369.586 -110.695 370.402 C-110.26 370.93 -109.824 371.457 -109.375 372 C-108.715 372 -108.055 372 -107.375 372 C-107.147 372.563 -106.919 373.127 -106.684 373.707 C-105.013 376.635 -102.954 378.445 -100.438 380.688 C-99.949 381.124 -99.46 381.56 -98.957 382.01 C-94.823 385.673 -90.562 389.173 -86.27 392.648 C-71.341 404.776 -58.881 417.567 -47.375 433 C-45.379 435.67 -43.379 438.337 -41.375 441 C-40.952 441.564 -40.528 442.128 -40.092 442.708 C-33.571 451.459 -33.571 451.459 -24.375 457 C-23.385 456.67 -22.395 456.34 -21.375 456 C-20.214 453.223 -20.214 453.223 -19.25 449.812 C-12.592 429.454 3.038 414.511 21.623 404.638 C34.985 397.878 49.067 394.19 63.625 391 C63.625 390.34 63.625 389.68 63.625 389 C63.006 388.918 62.388 388.835 61.75 388.75 C59.625 388 59.625 388 58.438 386.312 C56.899 381.934 56.345 378.465 57.625 374 C66.177 372.224 72.528 374.138 80.625 377 C94.616 381.897 94.616 381.897 109.125 381.062 C113.364 377.565 115.062 373.252 116.375 368 C117.062 359.762 115.906 353.249 113.688 345.312 C113.136 343.288 112.585 341.263 112.035 339.238 C111.789 338.352 111.543 337.465 111.289 336.552 C110.637 334.046 110.125 331.541 109.625 329 C108.683 324.991 107.682 320.996 106.688 317 C106.423 315.92 106.158 314.84 105.885 313.727 C105.625 312.682 105.365 311.638 105.098 310.562 C104.863 309.615 104.629 308.668 104.387 307.691 C103.635 305.035 102.666 302.554 101.625 300 C101.319 298.444 101.048 296.881 100.812 295.312 C99.76 289.742 97.712 284.764 94.625 280 C93.635 279.34 92.645 278.68 91.625 278 C90.635 276.515 90.635 276.515 89.625 275 C86.253 274.249 86.253 274.249 82.625 275 C79.004 278.753 76.864 282.094 75 287 C74.762 287.614 74.524 288.228 74.278 288.86 C72.486 293.539 70.82 298.261 69.148 302.984 C53.567 346.834 53.567 346.834 41.5 353.125 C33.521 356.896 25.317 358.042 16.625 359 C15.611 359.114 15.611 359.114 14.576 359.23 C-7.661 361.528 -36.737 362.329 -55.934 349.258 C-58.824 346.585 -60.827 343.674 -62.812 340.312 C-63.198 339.667 -63.583 339.021 -63.98 338.356 C-68.818 329.92 -72.222 320.481 -74.375 311 C-74.54 310.279 -74.705 309.559 -74.875 308.816 C-75.123 307.701 -75.123 307.701 -75.375 306.562 C-75.623 305.451 -75.623 305.451 -75.875 304.316 C-76.123 303.17 -76.123 303.17 -76.375 302 C-76.624 300.915 -76.624 300.915 -76.879 299.809 C-77.747 294.896 -78.1 289.916 -78.537 284.949 C-78.616 284.131 -78.696 283.312 -78.777 282.469 C-78.844 281.731 -78.911 280.993 -78.98 280.232 C-79.439 277.639 -80.33 275.411 -81.375 273 C-89.174 272.879 -96.855 273.221 -104.625 273.875 Z M-218.324 282.707 C-226.777 291.692 -228.63 303.533 -228.498 315.566 C-227.109 343.087 -215.683 370.375 -195.25 388.93 C-188.024 394.786 -178.776 398.495 -169.375 398 C-168.026 397.365 -166.69 396.702 -165.375 396 C-164.875 381.319 -165.422 367.056 -167.25 352.5 C-167.337 351.799 -167.424 351.099 -167.514 350.377 C-168.504 342.524 -169.667 334.733 -171.375 327 C-172.365 327.495 -172.365 327.495 -173.375 328 C-173.175 327.162 -172.975 326.324 -172.77 325.461 C-171.759 316.601 -176.068 306.608 -180.375 299 C-180.818 298.06 -180.818 298.06 -181.27 297.102 C-185.958 288.189 -192.334 282.595 -201.664 279.156 C-208.225 277.262 -213.152 278.177 -218.324 282.707 Z M139.625 357 C139.377 358.366 139.182 359.743 139.012 361.121 C136.059 383.629 136.059 383.629 127.625 393 C127.625 393.66 127.625 394.32 127.625 395 C128.303 395.231 128.981 395.461 129.68 395.699 C148.465 402.282 161.995 412.355 171.984 429.812 C173.43 432.116 173.43 432.116 175.672 432.887 C177.791 433.167 177.791 433.167 180.125 431.812 C184.939 426.396 186.766 419.156 186.625 412 C186.955 411.67 187.285 411.34 187.625 411 C191.088 392.835 190.993 374.398 190.625 356 C183.523 355.975 176.42 355.957 169.318 355.945 C166.899 355.94 164.481 355.933 162.063 355.925 C158.595 355.912 155.128 355.907 151.66 355.902 C150.572 355.897 149.483 355.892 148.362 355.887 C147.361 355.887 146.36 355.887 145.328 355.886 C144.442 355.884 143.556 355.882 142.643 355.88 C140.628 355.776 140.628 355.776 139.625 357 Z M-164.375 421 C-166.425 446.482 -165.643 469.432 -152.375 492 C-152.024 492.703 -151.674 493.405 -151.312 494.129 C-146.602 503.531 -139.886 511.801 -133.375 520 C-132.948 520.544 -132.521 521.087 -132.081 521.647 C-128.355 526.432 -128.355 526.432 -124.375 531 C-123.715 531 -123.055 531 -122.375 531 C-122.12 531.58 -121.865 532.161 -121.602 532.759 C-120.248 535.233 -118.741 536.877 -116.742 538.863 C-116.018 539.586 -115.293 540.308 -114.547 541.053 C-113.789 541.798 -113.031 542.544 -112.25 543.312 C-111.515 544.047 -110.78 544.781 -110.023 545.537 C-105.3 550.223 -100.428 554.674 -95.375 559 C-94.342 559.901 -93.31 560.802 -92.277 561.703 C-86.401 566.751 -80.42 571.583 -74.188 576.188 C-73.216 576.91 -73.216 576.91 -72.224 577.647 C-69.12 580.16 -69.12 580.16 -65.375 581 C-65.375 581.66 -65.375 582.32 -65.375 583 C-63.798 584.447 -63.798 584.447 -61.711 585.906 C-60.926 586.48 -60.141 587.054 -59.332 587.645 C-58.48 588.257 -57.628 588.869 -56.75 589.5 C-55.88 590.133 -55.01 590.766 -54.113 591.418 C-48.671 595.369 -43.198 599.278 -37.719 603.179 C-20.6 615.383 -3.871 627.948 11.625 642.188 C13.312 643.717 15.028 645.15 16.812 646.562 C19.776 649.131 22.21 651.884 24.746 654.863 C27.867 658.412 31.246 661.7 34.625 665 C38.667 661.372 41.397 657.053 44.375 652.562 C54.317 637.813 65.174 623.728 76.553 610.06 C77.047 609.463 77.541 608.865 78.051 608.25 C78.478 607.74 78.905 607.229 79.345 606.703 C80.951 604.567 82.28 602.307 83.625 600 C82.124 600.024 82.124 600.024 80.594 600.048 C61.418 600.322 42.546 600.58 23.625 597 C22.761 596.844 21.897 596.689 21.006 596.528 C-28.47 587.37 -76.572 562.425 -112.748 527.556 C-114.089 526.273 -115.457 525.019 -116.832 523.773 C-124.318 516.801 -129.993 508.248 -135.892 499.942 C-137.323 497.977 -137.323 497.977 -139.036 496.35 C-140.75 494.622 -140.81 493.367 -141.375 491 C-142.57 488.518 -143.797 486.071 -145.062 483.625 C-152.286 469.302 -157.074 455.602 -160.806 440.003 C-161.194 438.019 -161.194 438.019 -162.375 437 C-162.612 434.308 -162.797 431.635 -162.938 428.938 C-162.981 428.179 -163.024 427.42 -163.068 426.639 C-163.175 424.759 -163.275 422.88 -163.375 421 C-163.705 421 -164.035 421 -164.375 421 Z M28.953 449.785 C25.977 453.99 24.874 457.747 25.211 462.895 C26.161 467.724 28.703 470.262 32.438 473.25 C38.373 476.347 47.449 477.579 54.02 476.668 C55.839 476.116 55.839 476.116 56.625 474 C56.901 470.919 57.072 467.838 57.246 464.75 C57.625 462 57.625 462 59.625 460 C64.525 459 64.525 459 66.625 459 C67.919 458.995 69.213 458.99 70.546 458.984 C75.191 458.966 79.835 458.955 84.48 458.945 C86.49 458.94 88.5 458.933 90.509 458.925 C93.399 458.912 96.29 458.907 99.18 458.902 C100.08 458.897 100.98 458.892 101.907 458.887 C102.745 458.887 103.582 458.887 104.445 458.886 C105.181 458.884 105.918 458.882 106.676 458.88 C108.625 459 108.625 459 111.625 460 C113.258 463.267 112.584 466.777 112.465 470.371 C112.418 473.235 112.418 473.235 114.625 476 C121.803 476.769 128.836 475.481 134.934 471.488 C140.588 466.872 143.224 462.813 144 455.438 C143.431 450.219 141.751 447.244 138.25 443.375 C129.468 436.569 116.393 435.88 105.699 435.762 C104.962 435.752 104.225 435.742 103.465 435.732 C101.081 435.708 98.697 435.695 96.312 435.688 C95.497 435.685 94.681 435.682 93.84 435.679 C58.912 435.112 58.912 435.112 28.953 449.785 Z M-179.375 473 C-183.09 478.654 -186.193 484.44 -189.062 490.562 C-189.698 491.906 -189.698 491.906 -190.346 493.276 C-194.08 501.233 -197.605 509.279 -201.063 517.36 C-201.454 518.271 -201.844 519.182 -202.246 520.121 C-202.609 520.974 -202.973 521.827 -203.347 522.707 C-204.375 525 -204.375 525 -206.223 528.348 C-207.623 531.571 -207.293 532.658 -206.375 536 C-205.571 537.826 -204.702 539.623 -203.785 541.395 C-202.988 542.939 -202.988 542.939 -202.174 544.514 C-201.601 545.603 -201.028 546.691 -200.438 547.812 C-199.846 548.939 -199.255 550.065 -198.646 551.226 C-193.941 560.1 -188.954 568.652 -183.375 577 C-182.826 577.825 -182.277 578.651 -181.712 579.501 C-163.116 607.369 -142.825 634.26 -121.375 660 C-120.878 660.6 -120.38 661.199 -119.868 661.817 C-118.252 663.76 -116.628 665.693 -115 667.625 C-114.488 668.242 -113.975 668.859 -113.448 669.494 C-110.479 673.029 -110.479 673.029 -106.375 675 C-104.168 673.638 -102.217 672.277 -100.188 670.688 C-99.629 670.27 -99.07 669.853 -98.494 669.424 C-97.076 668.338 -95.72 667.174 -94.375 666 C-94.375 665.34 -94.375 664.68 -94.375 664 C-93.656 663.758 -92.936 663.515 -92.195 663.266 C-88.987 661.826 -86.889 660.073 -84.25 657.75 C-78.074 652.424 -71.553 647.621 -64.962 642.823 C-61.815 640.532 -58.688 638.252 -55.656 635.809 C-53.143 633.816 -50.535 632.13 -47.812 630.438 C-44.553 628.408 -41.432 626.322 -38.375 624 C-39.105 623.466 -39.105 623.466 -39.849 622.921 C-49.354 615.959 -58.815 608.949 -68.155 601.766 C-72.31 598.571 -76.489 595.411 -80.694 592.281 C-90.426 585.034 -99.832 577.528 -108.793 569.336 C-110.899 567.43 -113.031 565.567 -115.18 563.711 C-125.846 554.393 -135.696 544.188 -144.375 533 C-145.209 531.995 -146.043 530.989 -146.902 529.953 C-158.522 515.862 -167.909 500.364 -174.887 483.492 C-176.26 479.974 -176.26 479.974 -178.375 477 C-179 474.812 -179 474.812 -179.375 473 Z M18.625 858 C19.625 860 19.625 860 19.625 860 Z M146.625 148 C148.625 149 148.625 149 148.625 149 Z M181.625 229 C183.625 230 183.625 230 183.625 230 Z M-174.375 322 C-173.375 326 -173.375 326 -173.375 326 Z M186.625 357 C188.625 358 188.625 358 188.625 358 Z M-77.375 558 C-75.375 559 -75.375 559 -75.375 559 Z M276.625 583 C278.625 584 278.625 584 278.625 584 Z M-13.375 646 C-11.375 647 -11.375 647 -11.375 647 Z M389.625 648 C391.625 649 391.625 649 391.625 649 Z M-101.375 666 C-101.375 669 -101.375 669 -101.375 669 Z M145.625 670 C147.625 671 147.625 671 147.625 671 Z " fill="#060606" transform="translate(510.375,71)"/>
<path d="M0 0 C0 0.66 0 1.32 0 2 C0.557 2.206 1.114 2.413 1.688 2.625 C8.45 6.646 12.541 15.008 14.688 22.352 C15.126 24.234 15.563 26.117 16 28 C16.66 28.66 17.32 29.32 18 30 C17.793 35.38 16.794 40.471 14.312 45.25 C12 47 12 47 8.438 47.5 C5 47 5 47 3.125 45.688 C2 44 2 44 1 41 C0.34 40.34 -0.32 39.68 -1 39 C-1.09 36.645 -1.09 36.645 -0.938 33.812 C-0.891 28.765 -1.077 25.298 -4 21 C-6.495 19.538 -9.037 18.359 -11.676 17.18 C-14 16 -14 16 -16.188 13.5 C-17.193 10.407 -17.238 9.018 -16 6 C-11.427 1.427 -6.426 -0.378 0 0 Z " fill="#0E0E0D" transform="translate(321,379)"/>
<path d="M0 0 C3.235 1.827 5.467 4.142 7.438 7.312 C8.366 11.748 8.242 15.819 5.988 19.777 C3.433 23.074 1.082 25.146 -3 26 C-8.814 26 -12.392 24.923 -16.645 20.875 C-19.099 17.48 -19.382 14.097 -19 10 C-17.389 5.258 -15.125 2.785 -11 0 C-7.129 -1.29 -3.878 -1.07 0 0 Z " fill="#101010" transform="translate(574,810)"/>
<path d="M0 0 C2 1 2 1 2 1 Z M-1 1 C-1 4 -1 4 -2.469 5.809 C-3.139 6.464 -3.809 7.119 -4.5 7.793 C-5.222 8.505 -5.944 9.217 -6.688 9.951 C-7.451 10.689 -8.214 11.427 -9 12.188 C-10.145 13.312 -10.145 13.312 -11.312 14.459 C-13.202 16.313 -15.098 18.159 -17 20 C-17.66 19.67 -18.32 19.34 -19 19 C-17.13 16.933 -15.254 14.871 -13.375 12.812 C-12.592 11.945 -12.592 11.945 -11.793 11.061 C-8.413 7.367 -4.916 4.122 -1 1 Z " fill="#333332" transform="translate(116,676)"/>
<path d="M0 0 C0 3 0 3 -2.625 5.918 C-3.742 7.016 -4.868 8.105 -6 9.188 C-6.572 9.746 -7.145 10.305 -7.734 10.881 C-9.15 12.261 -10.574 13.631 -12 15 C-12.66 14.67 -13.32 14.34 -14 14 C-12.421 12.225 -10.837 10.455 -9.25 8.688 C-8.807 8.188 -8.363 7.688 -7.906 7.174 C-5.454 4.451 -3.027 2.072 0 0 Z " fill="#2B2B2A" transform="translate(515,486)"/>
<path d="M0 0 C0.33 0 0.66 0 1 0 C1 2.64 1 5.28 1 8 C0.67 8 0.34 8 0 8 C-0.381 5.674 -0.713 3.339 -1 1 C-0.67 0.67 -0.34 0.34 0 0 Z " fill="#555554" transform="translate(529,938)"/>
<path d="M0 0 C3.3 0 6.6 0 10 0 C10 0.33 10 0.66 10 1 C6.7 1 3.4 1 0 1 C0 0.67 0 0.34 0 0 Z " fill="#464645" transform="translate(476,304)"/>
<path d="M0 0 C0.66 0.66 1.32 1.32 2 2 C1.34 2.66 0.68 3.32 0 4 C-0.33 3.01 -0.66 2.02 -1 1 C-0.67 0.67 -0.34 0.34 0 0 Z " fill="#51504F" transform="translate(602,348)"/>
<path d="M0 0 C1.062 1.875 1.062 1.875 2 4 C1.67 4.66 1.34 5.32 1 6 C0 5 0 5 -0.062 2.438 C-0.042 1.633 -0.021 0.829 0 0 Z " fill="#3A3A39" transform="translate(609,364)"/>
<path d="M0 0 C0.66 0.66 1.32 1.32 2 2 C1.67 2.99 1.34 3.98 1 5 C0.67 3.35 0.34 1.7 0 0 Z " fill="#4A4A49" transform="translate(272,339)"/>
<path d="M0 0 C2.31 0 4.62 0 7 0 C7 0.33 7 0.66 7 1 C4.69 1 2.38 1 0 1 C0 0.67 0 0.34 0 0 Z " fill="#444443" transform="translate(507,304)"/>
<path d="M0 0 C0.33 0 0.66 0 1 0 C1 1.98 1 3.96 1 6 C0.67 6 0.34 6 0 6 C0 4.02 0 2.04 0 0 Z " fill="#545453" transform="translate(528,919)"/>
<path d="M0 0 C4 1 4 1 4 1 Z " fill="#51504F" transform="translate(788,632)"/>
<path d="M0 0 C4 1 4 1 4 1 Z M-2 1 C0 2 0 2 0 2 Z " fill="#4A4948" transform="translate(639,304)"/>
<path d="" fill="#515150" transform="translate(0,0)"/>
<path d="M0 0 C2 1 2 1 2 1 Z " fill="#535352" transform="translate(881,700)"/>
<path d="M0 0 C2 1 2 1 2 1 Z " fill="#474746" transform="translate(466,693)"/>
<path d="M0 0 C0.66 0.66 1.32 1.32 2 2 C1.01 1.67 0.02 1.34 -1 1 C-0.67 0.67 -0.34 0.34 0 0 Z " fill="#4A4A49" transform="translate(433,668)"/>
<path d="M0 0 C0.33 0.66 0.66 1.32 1 2 C0.01 2.33 -0.98 2.66 -2 3 C-2 2.34 -2 1.68 -2 1 C-1.34 0.67 -0.68 0.34 0 0 Z " fill="#3A3A39" transform="translate(354,535)"/>
<path d="M0 0 C4 1 4 1 4 1 Z " fill="#3A3A39" transform="translate(633,510)"/>
<path d="" fill="#525251" transform="translate(0,0)"/>
<path d="M0 0 C1.65 0 3.3 0 5 0 C5 0.33 5 0.66 5 1 C3.35 1 1.7 1 0 1 C0 0.67 0 0.34 0 0 Z " fill="#444443" transform="translate(470,304)"/>
<path d="M0 0 C0.99 0.33 1.98 0.66 3 1 C2.01 1 1.02 1 0 1 C0 0.67 0 0.34 0 0 Z " fill="#424241" transform="translate(457,304)"/>
<path d="M0 0 C1.32 0.33 2.64 0.66 4 1 C3.01 1.495 3.01 1.495 2 2 C1.34 1.34 0.68 0.68 0 0 Z " fill="#494948" transform="translate(523,262)"/>
<path d="M0 0 C0.99 0.495 0.99 0.495 2 1 C1.34 1.66 0.68 2.32 0 3 C0 2.01 0 1.02 0 0 Z " fill="#4E4D4C" transform="translate(662,221)"/>
<path d="M0 0 C1 4 1 4 1 4 Z " fill="#585857" transform="translate(44,937)"/>
<path d="M0 0 C1 4 1 4 1 4 Z " fill="#575756" transform="translate(524,828)"/>
<path d="M0 0 C0 3 0 3 0 3 Z " fill="#515150" transform="translate(420,728)"/>
<path d="M0 0 C0.66 0.66 1.32 1.32 2 2 C1.34 2 0.68 2 0 2 C0 1.34 0 0.68 0 0 Z " fill="#504F4E" transform="translate(632,723)"/>
<path d="M0 0 C3 1 3 1 3 1 Z " fill="#4B4A49" transform="translate(485,710)"/>
<path d="M0 0 C0.99 0.33 1.98 0.66 3 1 C2.01 1 1.02 1 0 1 C0 0.67 0 0.34 0 0 Z " fill="#4F4F4E" transform="translate(448,707)"/>
<path d="M0 0 C3 1 3 1 3 1 Z " fill="#545453" transform="translate(801,660)"/>
<path d="M0 0 C1 4 1 4 1 4 Z " fill="#444443" transform="translate(668,644)"/>
<path d="M0 0 C0.33 0.66 0.66 1.32 1 2 C0.01 1.67 -0.98 1.34 -2 1 C-1.34 0.67 -0.68 0.34 0 0 Z " fill="#555554" transform="translate(170,642)"/>
<path d="M0 0 C0.99 0.495 0.99 0.495 2 1 C1.01 1.495 1.01 1.495 0 2 C0 1.34 0 0.68 0 0 Z " fill="#535352" transform="translate(267,622)"/>
<path d="M0 0 C0.66 0 1.32 0 2 0 C1.67 0.66 1.34 1.32 1 2 C0.67 1.34 0.34 0.68 0 0 Z " fill="#414140" transform="translate(336,563)"/>
<path d="M0 0 C0.99 0.495 0.99 0.495 2 1 C1.01 1.495 1.01 1.495 0 2 C0 1.34 0 0.68 0 0 Z " fill="#3A3A39" transform="translate(509,488)"/>
<path d="M0 0 C2 1 2 1 2 1 Z " fill="#4B4A49" transform="translate(322,485)"/>
<path d="M0 0 C2 1 2 1 2 1 Z " fill="#50504F" transform="translate(305,476)"/>
<path d="" fill="#515150" transform="translate(0,0)"/>
<path d="M0 0 C0.66 0.33 1.32 0.66 2 1 C1.01 1 0.02 1 -1 1 C-0.67 0.67 -0.34 0.34 0 0 Z " fill="#4A4A49" transform="translate(309,398)"/>
<path d="M0 0 C1 4 1 4 1 4 Z " fill="#3D3D3C" transform="translate(432,373)"/>
<path d="M0 0 C3 1 3 1 3 1 Z " fill="#3D3D3C" transform="translate(400,312)"/>
<path d="M0 0 C4 1 4 1 4 1 Z " fill="#474746" transform="translate(518,304)"/>
<path d="M0 0 C4 1 4 1 4 1 Z " fill="#515150" transform="translate(579,80)"/>
<path d="" fill="#565655" transform="translate(0,0)"/>
<path d="" fill="#504F4E" transform="translate(0,0)"/>
<path d="M0 0 C0.99 0.495 0.99 0.495 2 1 C1.01 1.495 1.01 1.495 0 2 C0 1.34 0 0.68 0 0 Z " fill="#4E4D4C" transform="translate(440,714)"/>
<path d="M0 0 C0.66 0 1.32 0 2 0 C1.67 0.66 1.34 1.32 1 2 C0.67 1.34 0.34 0.68 0 0 Z " fill="#474746" transform="translate(464,695)"/>
<path d="M0 0 C2 1 2 1 2 1 Z " fill="#525251" transform="translate(858,685)"/>
<path d="M0 0 C2 1 2 1 2 1 Z " fill="#525251" transform="translate(827,670)"/>
<path d="" fill="#565655" transform="translate(0,0)"/>
<path d="M0 0 C2 1 2 1 2 1 Z " fill="#3B3B3A" transform="translate(481,654)"/>
<path d="M0 0 C0.33 0.66 0.66 1.32 1 2 C0.34 1.67 -0.32 1.34 -1 1 C-0.67 0.67 -0.34 0.34 0 0 Z " fill="#545453" transform="translate(835,649)"/>
<path d="M0 0 C2 1 2 1 2 1 Z " fill="#515150" transform="translate(725,631)"/>
<path d="" fill="#474746" transform="translate(0,0)"/>
<path d="M0 0 C0.66 0 1.32 0 2 0 C1.67 0.66 1.34 1.32 1 2 C0.67 1.34 0.34 0.68 0 0 Z " fill="#464645" transform="translate(362,603)"/>
<path d="" fill="#3A3A39" transform="translate(0,0)"/>
<path d="M0 0 C0.66 0 1.32 0 2 0 C1.67 0.66 1.34 1.32 1 2 C0.67 1.34 0.34 0.68 0 0 Z " fill="#3A3A39" transform="translate(366,574)"/>
<path d="M0 0 C0.66 0.66 1.32 1.32 2 2 C1.34 2 0.68 2 0 2 C0 1.34 0 0.68 0 0 Z " fill="#3A3A39" transform="translate(356,542)"/>
<path d="" fill="#3A3A39" transform="translate(0,0)"/>
<path d="M0 0 C2 1 2 1 2 1 Z " fill="#3B3B3A" transform="translate(515,481)"/>
<path d="M0 0 C2 1 2 1 2 1 Z " fill="#403F3F" transform="translate(553,464)"/>
<path d="M0 0 C3 1 3 1 3 1 Z " fill="#464645" transform="translate(531,431)"/>
<path d="" fill="#474746" transform="translate(0,0)"/>
<path d="" fill="#414040" transform="translate(0,0)"/>
<path d="" fill="#4A4A49" transform="translate(0,0)"/>
<path d="M0 0 C0.66 0 1.32 0 2 0 C1.67 0.66 1.34 1.32 1 2 C0.67 1.34 0.34 0.68 0 0 Z " fill="#545453" transform="translate(264,361)"/>
<path d="M0 0 C3 1 3 1 3 1 Z " fill="#403F3F" transform="translate(396,347)"/>
<path d="M0 0 C0.66 0 1.32 0 2 0 C1.67 0.66 1.34 1.32 1 2 C0.67 1.34 0.34 0.68 0 0 Z " fill="#525251" transform="translate(310,144)"/>
<path d="M0 0 C2 1 2 1 2 1 Z " fill="#575756" transform="translate(416,77)"/>
<path d="M0 0 C3 1 3 1 3 1 Z " fill="#575756" transform="translate(432,73)"/>
<path d="M0 0 C2 1 2 1 2 1 Z " fill="#575756" transform="translate(544,951)"/>
<path d="" fill="#545453" transform="translate(0,0)"/>
<path d="" fill="#595958" transform="translate(0,0)"/>
<path d="" fill="#515150" transform="translate(0,0)"/>
<path d="" fill="#545453" transform="translate(0,0)"/>
<path d="" fill="#515150" transform="translate(0,0)"/>
<path d="" fill="#515150" transform="translate(0,0)"/>
<path d="" fill="#515150" transform="translate(0,0)"/>
<path d="" fill="#515150" transform="translate(0,0)"/>
<path d="" fill="#555554" transform="translate(0,0)"/>
<path d="" fill="#545453" transform="translate(0,0)"/>
<path d="" fill="#575756" transform="translate(0,0)"/>
<path d="" fill="#4F4F4E" transform="translate(0,0)"/>
<path d="" fill="#545453" transform="translate(0,0)"/>
<path d="" fill="#525251" transform="translate(0,0)"/>
<path d="" fill="#515150" transform="translate(0,0)"/>
<path d="" fill="#515150" transform="translate(0,0)"/>
<path d="" fill="#525251" transform="translate(0,0)"/>
<path d="" fill="#4E4D4C" transform="translate(0,0)"/>
<path d="M0 0 C2 1 2 1 2 1 Z " fill="#515150" transform="translate(416,728)"/>
<path d="M0 0 C2 1 2 1 2 1 Z " fill="#4E4D4C" transform="translate(504,727)"/>
<path d="" fill="#4A4A49" transform="translate(0,0)"/>
<path d="" fill="#4E4D4C" transform="translate(0,0)"/>
<path d="" fill="#555554" transform="translate(0,0)"/>
<path d="" fill="#555554" transform="translate(0,0)"/>
<path d="" fill="#545453" transform="translate(0,0)"/>
<path d="" fill="#525251" transform="translate(0,0)"/>
<path d="" fill="#484847" transform="translate(0,0)"/>
<path d="" fill="#575756" transform="translate(0,0)"/>
<path d="" fill="#424241" transform="translate(0,0)"/>
<path d="M0 0 C2 1 2 1 2 1 Z " fill="#575756" transform="translate(105,680)"/>
<path d="" fill="#515150" transform="translate(0,0)"/>
<path d="" fill="#4C4B4A" transform="translate(0,0)"/>
<path d="" fill="#575756" transform="translate(0,0)"/>
<path d="M0 0 C2 1 2 1 2 1 Z " fill="#3F3E3E" transform="translate(540,671)"/>
<path d="" fill="#424241" transform="translate(0,0)"/>
<path d="M0 0 C2 1 2 1 2 1 Z " fill="#424241" transform="translate(529,669)"/>
<path d="M0 0 C2 1 2 1 2 1 Z " fill="#525251" transform="translate(806,662)"/>
<path d="" fill="#4E4D4C" transform="translate(0,0)"/>
<path d="" fill="#4E4D4C" transform="translate(0,0)"/>
<path d="M0 0 C2 1 2 1 2 1 Z " fill="#525251" transform="translate(737,635)"/>
<path d="" fill="#464645" transform="translate(0,0)"/>
<path d="" fill="#4A4A49" transform="translate(0,0)"/>
<path d="" fill="#4A4A49" transform="translate(0,0)"/>
<path d="" fill="#464645" transform="translate(0,0)"/>
<path d="" fill="#4E4D4C" transform="translate(0,0)"/>
<path d="M0 0 C2 1 2 1 2 1 Z " fill="#515150" transform="translate(280,593)"/>
<path d="" fill="#3A3A39" transform="translate(0,0)"/>
<path d="" fill="#424241" transform="translate(0,0)"/>
<path d="" fill="#424241" transform="translate(0,0)"/>
<path d="" fill="#3F3E3E" transform="translate(0,0)"/>
<path d="" fill="#3A3A39" transform="translate(0,0)"/>
<path d="M0 0 C2 1 2 1 2 1 Z " fill="#3A3A39" transform="translate(547,544)"/>
<path d="" fill="#3A3A39" transform="translate(0,0)"/>
<path d="M0 0 C2 1 2 1 2 1 Z " fill="#515150" transform="translate(312,530)"/>
<path d="M0 0 C2 1 2 1 2 1 Z " fill="#3A3A39" transform="translate(620,528)"/>
<path d="M0 0 C2 1 2 1 2 1 Z " fill="#3A3A39" transform="translate(600,528)"/>
<path d="" fill="#424241" transform="translate(0,0)"/>
<path d="" fill="#3A3A39" transform="translate(0,0)"/>
<path d="M0 0 C2 1 2 1 2 1 Z " fill="#3C3C3B" transform="translate(617,508)"/>
<path d="" fill="#3A3A39" transform="translate(0,0)"/>
<path d="" fill="#3A3A39" transform="translate(0,0)"/>
<path d="M0 0 C2 1 2 1 2 1 Z " fill="#515150" transform="translate(309,479)"/>
<path d="" fill="#3F3E3E" transform="translate(0,0)"/>
<path d="" fill="#3A3A39" transform="translate(0,0)"/>
<path d="" fill="#515150" transform="translate(0,0)"/>
<path d="" fill="#40403F" transform="translate(0,0)"/>
<path d="" fill="#40403F" transform="translate(0,0)"/>
<path d="M0 0 C2 1 2 1 2 1 Z " fill="#3C3C3B" transform="translate(570,460)"/>
<path d="M0 0 C2 1 2 1 2 1 Z " fill="#515150" transform="translate(280,448)"/>
<path d="" fill="#424241" transform="translate(0,0)"/>
<path d="" fill="#40403F" transform="translate(0,0)"/>
<path d="" fill="#3F3E3E" transform="translate(0,0)"/>
<path d="M0 0 C2 1 2 1 2 1 Z " fill="#40403F" transform="translate(624,432)"/>
<path d="" fill="#515150" transform="translate(0,0)"/>
<path d="M0 0 C2 1 2 1 2 1 Z " fill="#3C3C3B" transform="translate(652,431)"/>
<path d="M0 0 C2 1 2 1 2 1 Z " fill="#3F3E3E" transform="translate(657,428)"/>
<path d="" fill="#3C3C3B" transform="translate(0,0)"/>
<path d="" fill="#545453" transform="translate(0,0)"/>
<path d="" fill="#525251" transform="translate(0,0)"/>
<path d="" fill="#3F3E3E" transform="translate(0,0)"/>
<path d="" fill="#3F3E3E" transform="translate(0,0)"/>
<path d="" fill="#3F3E3E" transform="translate(0,0)"/>
<path d="" fill="#3F3E3E" transform="translate(0,0)"/>
<path d="M0 0 C2 1 2 1 2 1 Z " fill="#4A4A49" transform="translate(313,378)"/>
<path d="" fill="#515150" transform="translate(0,0)"/>
<path d="" fill="#464645" transform="translate(0,0)"/>
<path d="" fill="#464645" transform="translate(0,0)"/>
<path d="" fill="#545453" transform="translate(0,0)"/>
<path d="M0 0 C2 1 2 1 2 1 Z " fill="#3F3E3E" transform="translate(392,314)"/>
<path d="M0 0 C2 1 2 1 2 1 Z " fill="#424241" transform="translate(587,312)"/>
<path d="M0 0 C2 1 2 1 2 1 Z " fill="#3A3A39" transform="translate(390,312)"/>
<path d="M0 0 C2 1 2 1 2 1 Z " fill="#444443" transform="translate(624,307)"/>
<path d="M0 0 C2 1 2 1 2 1 Z " fill="#464645" transform="translate(545,306)"/>
<path d="M0 0 C2 1 2 1 2 1 Z " fill="#424241" transform="translate(449,306)"/>
<path d="M0 0 C2 1 2 1 2 1 Z " fill="#444443" transform="translate(487,304)"/>
<path d="" fill="#4E4D4C" transform="translate(0,0)"/>
<path d="" fill="#4A4A49" transform="translate(0,0)"/>
<path d="" fill="#4E4D4C" transform="translate(0,0)"/>
<path d="" fill="#515150" transform="translate(0,0)"/>
<path d="" fill="#4F4F4E" transform="translate(0,0)"/>
<path d="M0 0 C2 1 2 1 2 1 Z " fill="#484847" transform="translate(625,221)"/>
<path d="" fill="#555554" transform="translate(0,0)"/>
<path d="" fill="#545453" transform="translate(0,0)"/>
<path d="" fill="#575756" transform="translate(0,0)"/>
<path d="M0 0 C2 1 2 1 2 1 Z " fill="#545453" transform="translate(607,88)"/>
<path d="M0 0 C2 1 2 1 2 1 Z " fill="#575756" transform="translate(384,88)"/>
<path d="M0 0 C2 1 2 1 2 1 Z " fill="#575756" transform="translate(406,80)"/>
<path d="M0 0 C2 1 2 1 2 1 Z " fill="#575756" transform="translate(542,72)"/>
<path d="M0 0 C2 1 2 1 2 1 Z " fill="#575756" transform="translate(472,69)"/>
<path d="" fill="#5C5C5A" transform="translate(0,0)"/>
<path d="" fill="#616160" transform="translate(0,0)"/>
<path d="" fill="#3F3E3E" transform="translate(0,0)"/>
<path d="" fill="#545453" transform="translate(0,0)"/>
<path d="" fill="#515150" transform="translate(0,0)"/>
<path d="" fill="#515150" transform="translate(0,0)"/>
<path d="" fill="#545453" transform="translate(0,0)"/>
<path d="" fill="#515150" transform="translate(0,0)"/>
<path d="" fill="#545453" transform="translate(0,0)"/>
<path d="" fill="#515150" transform="translate(0,0)"/>
<path d="" fill="#515150" transform="translate(0,0)"/>
<path d="" fill="#545453" transform="translate(0,0)"/>
<path d="" fill="#4E4D4C" transform="translate(0,0)"/>
<path d="" fill="#515150" transform="translate(0,0)"/>
<path d="" fill="#575756" transform="translate(0,0)"/>
<path d="" fill="#575756" transform="translate(0,0)"/>
<path d="" fill="#515150" transform="translate(0,0)"/>
<path d="" fill="#4A4A49" transform="translate(0,0)"/>
<path d="" fill="#515150" transform="translate(0,0)"/>
<path d="" fill="#545453" transform="translate(0,0)"/>
<path d="" fill="#545453" transform="translate(0,0)"/>
<path d="" fill="#575756" transform="translate(0,0)"/>
<path d="" fill="#5C5C5A" transform="translate(0,0)"/>
<path d="" fill="#515150" transform="translate(0,0)"/>
<path d="" fill="#4E4D4C" transform="translate(0,0)"/>
<path d="" fill="#515150" transform="translate(0,0)"/>
<path d="" fill="#4E4D4C" transform="translate(0,0)"/>
<path d="" fill="#4E4D4C" transform="translate(0,0)"/>
<path d="" fill="#545453" transform="translate(0,0)"/>
<path d="" fill="#515150" transform="translate(0,0)"/>
<path d="" fill="#575756" transform="translate(0,0)"/>
<path d="" fill="#545453" transform="translate(0,0)"/>
<path d="" fill="#515150" transform="translate(0,0)"/>
<path d="" fill="#575756" transform="translate(0,0)"/>
<path d="" fill="#575756" transform="translate(0,0)"/>
<path d="" fill="#545453" transform="translate(0,0)"/>
<path d="" fill="#545453" transform="translate(0,0)"/>
<path d="" fill="#515150" transform="translate(0,0)"/>
<path d="" fill="#545453" transform="translate(0,0)"/>
<path d="" fill="#575756" transform="translate(0,0)"/>
<path d="" fill="#575756" transform="translate(0,0)"/>
<path d="" fill="#575756" transform="translate(0,0)"/>
<path d="" fill="#515150" transform="translate(0,0)"/>
<path d="" fill="#545453" transform="translate(0,0)"/>
<path d="" fill="#545453" transform="translate(0,0)"/>
<path d="" fill="#575756" transform="translate(0,0)"/>
<path d="" fill="#575756" transform="translate(0,0)"/>
<path d="" fill="#545453" transform="translate(0,0)"/>
<path d="" fill="#4E4D4C" transform="translate(0,0)"/>
<path d="" fill="#515150" transform="translate(0,0)"/>
<path d="" fill="#515150" transform="translate(0,0)"/>
<path d="" fill="#545453" transform="translate(0,0)"/>
<path d="" fill="#545453" transform="translate(0,0)"/>
<path d="" fill="#545453" transform="translate(0,0)"/>
<path d="" fill="#515150" transform="translate(0,0)"/>
<path d="" fill="#515150" transform="translate(0,0)"/>
<path d="" fill="#545453" transform="translate(0,0)"/>
<path d="" fill="#545453" transform="translate(0,0)"/>
<path d="" fill="#545453" transform="translate(0,0)"/>
<path d="" fill="#515150" transform="translate(0,0)"/>
<path d="" fill="#575756" transform="translate(0,0)"/>
<path d="" fill="#515150" transform="translate(0,0)"/>
<path d="" fill="#4E4D4C" transform="translate(0,0)"/>
<path d="" fill="#4E4D4C" transform="translate(0,0)"/>
<path d="" fill="#515150" transform="translate(0,0)"/>
<path d="" fill="#515150" transform="translate(0,0)"/>
<path d="" fill="#4E4D4C" transform="translate(0,0)"/>
<path d="" fill="#545453" transform="translate(0,0)"/>
<path d="" fill="#4E4D4C" transform="translate(0,0)"/>
<path d="" fill="#4E4D4C" transform="translate(0,0)"/>
<path d="" fill="#575756" transform="translate(0,0)"/>
<path d="" fill="#515150" transform="translate(0,0)"/>
<path d="" fill="#515150" transform="translate(0,0)"/>
<path d="" fill="#515150" transform="translate(0,0)"/>
<path d="" fill="#4E4D4C" transform="translate(0,0)"/>
<path d="" fill="#515150" transform="translate(0,0)"/>
<path d="" fill="#515150" transform="translate(0,0)"/>
<path d="" fill="#545453" transform="translate(0,0)"/>
<path d="" fill="#545453" transform="translate(0,0)"/>
<path d="" fill="#545453" transform="translate(0,0)"/>
<path d="" fill="#4E4D4C" transform="translate(0,0)"/>
<path d="" fill="#545453" transform="translate(0,0)"/>
<path d="" fill="#4E4D4C" transform="translate(0,0)"/>
<path d="" fill="#4A4A49" transform="translate(0,0)"/>
<path d="" fill="#575756" transform="translate(0,0)"/>
<path d="" fill="#4A4A49" transform="translate(0,0)"/>
<path d="" fill="#4A4A49" transform="translate(0,0)"/>
<path d="" fill="#545453" transform="translate(0,0)"/>
<path d="" fill="#4A4A49" transform="translate(0,0)"/>
<path d="" fill="#4A4A49" transform="translate(0,0)"/>
<path d="" fill="#4E4D4C" transform="translate(0,0)"/>
<path d="" fill="#4A4A49" transform="translate(0,0)"/>
<path d="" fill="#4A4A49" transform="translate(0,0)"/>
<path d="" fill="#4E4D4C" transform="translate(0,0)"/>
<path d="" fill="#545453" transform="translate(0,0)"/>
<path d="" fill="#464645" transform="translate(0,0)"/>
<path d="" fill="#4A4A49" transform="translate(0,0)"/>
<path d="" fill="#464645" transform="translate(0,0)"/>
<path d="" fill="#515150" transform="translate(0,0)"/>
<path d="" fill="#4E4D4C" transform="translate(0,0)"/>
<path d="" fill="#5C5C5A" transform="translate(0,0)"/>
<path d="" fill="#464645" transform="translate(0,0)"/>
<path d="" fill="#4A4A49" transform="translate(0,0)"/>
<path d="" fill="#4A4A49" transform="translate(0,0)"/>
<path d="" fill="#4A4A49" transform="translate(0,0)"/>
<path d="" fill="#464645" transform="translate(0,0)"/>
<path d="" fill="#464645" transform="translate(0,0)"/>
<path d="" fill="#515150" transform="translate(0,0)"/>
<path d="" fill="#4E4D4C" transform="translate(0,0)"/>
<path d="" fill="#424241" transform="translate(0,0)"/>
<path d="" fill="#464645" transform="translate(0,0)"/>
<path d="" fill="#424241" transform="translate(0,0)"/>
<path d="" fill="#515150" transform="translate(0,0)"/>
<path d="" fill="#464645" transform="translate(0,0)"/>
<path d="" fill="#4E4D4C" transform="translate(0,0)"/>
<path d="" fill="#464645" transform="translate(0,0)"/>
<path d="" fill="#4E4D4C" transform="translate(0,0)"/>
<path d="" fill="#4E4D4C" transform="translate(0,0)"/>
<path d="" fill="#575756" transform="translate(0,0)"/>
<path d="" fill="#515150" transform="translate(0,0)"/>
<path d="" fill="#545453" transform="translate(0,0)"/>
<path d="" fill="#4A4A49" transform="translate(0,0)"/>
<path d="" fill="#515150" transform="translate(0,0)"/>
<path d="" fill="#575756" transform="translate(0,0)"/>
<path d="" fill="#515150" transform="translate(0,0)"/>
<path d="" fill="#3F3E3E" transform="translate(0,0)"/>
<path d="" fill="#575756" transform="translate(0,0)"/>
<path d="" fill="#515150" transform="translate(0,0)"/>
<path d="" fill="#545453" transform="translate(0,0)"/>
<path d="" fill="#3F3E3E" transform="translate(0,0)"/>
<path d="" fill="#464645" transform="translate(0,0)"/>
<path d="" fill="#4E4D4C" transform="translate(0,0)"/>
<path d="" fill="#4A4A49" transform="translate(0,0)"/>
<path d="" fill="#424241" transform="translate(0,0)"/>
<path d="" fill="#424241" transform="translate(0,0)"/>
<path d="" fill="#545453" transform="translate(0,0)"/>
<path d="" fill="#3F3E3E" transform="translate(0,0)"/>
<path d="" fill="#575756" transform="translate(0,0)"/>
<path d="" fill="#3F3E3E" transform="translate(0,0)"/>
<path d="" fill="#545453" transform="translate(0,0)"/>
<path d="" fill="#3F3E3E" transform="translate(0,0)"/>
<path d="" fill="#575756" transform="translate(0,0)"/>
<path d="" fill="#515150" transform="translate(0,0)"/>
<path d="" fill="#4E4D4C" transform="translate(0,0)"/>
<path d="" fill="#545453" transform="translate(0,0)"/>
<path d="" fill="#545453" transform="translate(0,0)"/>
<path d="" fill="#545453" transform="translate(0,0)"/>
<path d="" fill="#3F3E3E" transform="translate(0,0)"/>
<path d="" fill="#545453" transform="translate(0,0)"/>
<path d="" fill="#3F3E3E" transform="translate(0,0)"/>
<path d="" fill="#3A3A39" transform="translate(0,0)"/>
<path d="" fill="#575756" transform="translate(0,0)"/>
<path d="" fill="#515150" transform="translate(0,0)"/>
<path d="" fill="#3F3E3E" transform="translate(0,0)"/>
<path d="" fill="#545453" transform="translate(0,0)"/>
<path d="" fill="#3F3E3E" transform="translate(0,0)"/>
<path d="" fill="#515150" transform="translate(0,0)"/>
<path d="" fill="#464645" transform="translate(0,0)"/>
<path d="" fill="#4E4D4C" transform="translate(0,0)"/>
<path d="" fill="#515150" transform="translate(0,0)"/>
<path d="" fill="#545453" transform="translate(0,0)"/>
<path d="" fill="#4E4D4C" transform="translate(0,0)"/>
<path d="" fill="#545453" transform="translate(0,0)"/>
<path d="" fill="#545453" transform="translate(0,0)"/>
<path d="" fill="#3A3A39" transform="translate(0,0)"/>
<path d="" fill="#4E4D4C" transform="translate(0,0)"/>
<path d="" fill="#545453" transform="translate(0,0)"/>
<path d="" fill="#545453" transform="translate(0,0)"/>
<path d="" fill="#464645" transform="translate(0,0)"/>
<path d="" fill="#3A3A39" transform="translate(0,0)"/>
<path d="" fill="#4A4A49" transform="translate(0,0)"/>
<path d="" fill="#515150" transform="translate(0,0)"/>
<path d="" fill="#3A3A39" transform="translate(0,0)"/>
<path d="" fill="#3F3E3E" transform="translate(0,0)"/>
<path d="" fill="#464645" transform="translate(0,0)"/>
<path d="" fill="#4E4D4C" transform="translate(0,0)"/>
<path d="" fill="#3A3A39" transform="translate(0,0)"/>
<path d="" fill="#515150" transform="translate(0,0)"/>
<path d="" fill="#515150" transform="translate(0,0)"/>
<path d="" fill="#4E4D4C" transform="translate(0,0)"/>
<path d="" fill="#3A3A39" transform="translate(0,0)"/>
<path d="" fill="#575756" transform="translate(0,0)"/>
<path d="" fill="#4A4A49" transform="translate(0,0)"/>
<path d="" fill="#515150" transform="translate(0,0)"/>
<path d="" fill="#515150" transform="translate(0,0)"/>
<path d="" fill="#545453" transform="translate(0,0)"/>
<path d="" fill="#545453" transform="translate(0,0)"/>
<path d="" fill="#545453" transform="translate(0,0)"/>
<path d="" fill="#545453" transform="translate(0,0)"/>
<path d="" fill="#4A4A49" transform="translate(0,0)"/>
<path d="" fill="#545453" transform="translate(0,0)"/>
<path d="" fill="#4A4A49" transform="translate(0,0)"/>
<path d="" fill="#3A3A39" transform="translate(0,0)"/>
<path d="" fill="#575756" transform="translate(0,0)"/>
<path d="" fill="#545453" transform="translate(0,0)"/>
<path d="" fill="#3A3A39" transform="translate(0,0)"/>
<path d="" fill="#464645" transform="translate(0,0)"/>
<path d="" fill="#4A4A49" transform="translate(0,0)"/>
<path d="" fill="#575756" transform="translate(0,0)"/>
<path d="" fill="#515150" transform="translate(0,0)"/>
<path d="" fill="#545453" transform="translate(0,0)"/>
<path d="" fill="#4E4D4C" transform="translate(0,0)"/>
<path d="" fill="#515150" transform="translate(0,0)"/>
<path d="" fill="#4E4D4C" transform="translate(0,0)"/>
<path d="" fill="#545453" transform="translate(0,0)"/>
<path d="" fill="#515150" transform="translate(0,0)"/>
<path d="" fill="#4E4D4C" transform="translate(0,0)"/>
<path d="" fill="#3A3A39" transform="translate(0,0)"/>
<path d="" fill="#5C5C5A" transform="translate(0,0)"/>
<path d="" fill="#4E4D4C" transform="translate(0,0)"/>
<path d="" fill="#3A3A39" transform="translate(0,0)"/>
<path d="" fill="#515150" transform="translate(0,0)"/>
<path d="" fill="#464645" transform="translate(0,0)"/>
<path d="" fill="#4E4D4C" transform="translate(0,0)"/>
<path d="" fill="#464645" transform="translate(0,0)"/>
<path d="" fill="#3A3A39" transform="translate(0,0)"/>
<path d="" fill="#545453" transform="translate(0,0)"/>
<path d="" fill="#515150" transform="translate(0,0)"/>
<path d="" fill="#575756" transform="translate(0,0)"/>
<path d="" fill="#3A3A39" transform="translate(0,0)"/>
<path d="" fill="#4E4D4C" transform="translate(0,0)"/>
<path d="" fill="#3A3A39" transform="translate(0,0)"/>
<path d="" fill="#5C5C5A" transform="translate(0,0)"/>
<path d="" fill="#515150" transform="translate(0,0)"/>
<path d="" fill="#4E4D4C" transform="translate(0,0)"/>
<path d="" fill="#515150" transform="translate(0,0)"/>
<path d="" fill="#545453" transform="translate(0,0)"/>
<path d="" fill="#464645" transform="translate(0,0)"/>
<path d="" fill="#3A3A39" transform="translate(0,0)"/>
<path d="" fill="#4A4A49" transform="translate(0,0)"/>
<path d="" fill="#464645" transform="translate(0,0)"/>
<path d="" fill="#464645" transform="translate(0,0)"/>
<path d="" fill="#464645" transform="translate(0,0)"/>
<path d="" fill="#464645" transform="translate(0,0)"/>
<path d="" fill="#575756" transform="translate(0,0)"/>
<path d="" fill="#575756" transform="translate(0,0)"/>
<path d="" fill="#4A4A49" transform="translate(0,0)"/>
<path d="" fill="#545453" transform="translate(0,0)"/>
<path d="" fill="#575756" transform="translate(0,0)"/>
<path d="" fill="#545453" transform="translate(0,0)"/>
<path d="" fill="#575756" transform="translate(0,0)"/>
<path d="" fill="#464645" transform="translate(0,0)"/>
<path d="" fill="#424241" transform="translate(0,0)"/>
<path d="" fill="#3A3A39" transform="translate(0,0)"/>
<path d="" fill="#3A3A39" transform="translate(0,0)"/>
<path d="" fill="#424241" transform="translate(0,0)"/>
<path d="" fill="#3A3A39" transform="translate(0,0)"/>
<path d="" fill="#3A3A39" transform="translate(0,0)"/>
<path d="" fill="#424241" transform="translate(0,0)"/>
<path d="" fill="#545453" transform="translate(0,0)"/>
<path d="" fill="#3A3A39" transform="translate(0,0)"/>
<path d="" fill="#3A3A39" transform="translate(0,0)"/>
<path d="" fill="#3A3A39" transform="translate(0,0)"/>
<path d="" fill="#3A3A39" transform="translate(0,0)"/>
<path d="" fill="#3A3A39" transform="translate(0,0)"/>
<path d="" fill="#3A3A39" transform="translate(0,0)"/>
<path d="" fill="#20201F" transform="translate(0,0)"/>
<path d="" fill="#3A3A39" transform="translate(0,0)"/>
<path d="" fill="#424241" transform="translate(0,0)"/>
<path d="" fill="#3A3A39" transform="translate(0,0)"/>
<path d="" fill="#424241" transform="translate(0,0)"/>
<path d="" fill="#3A3A39" transform="translate(0,0)"/>
<path d="" fill="#3A3A39" transform="translate(0,0)"/>
<path d="" fill="#3A3A39" transform="translate(0,0)"/>
<path d="" fill="#3A3A39" transform="translate(0,0)"/>
<path d="" fill="#3A3A39" transform="translate(0,0)"/>
<path d="" fill="#3F3E3E" transform="translate(0,0)"/>
<path d="" fill="#3A3A39" transform="translate(0,0)"/>
<path d="" fill="#3A3A39" transform="translate(0,0)"/>
<path d="" fill="#3A3A39" transform="translate(0,0)"/>
<path d="" fill="#3A3A39" transform="translate(0,0)"/>
<path d="" fill="#3A3A39" transform="translate(0,0)"/>
<path d="" fill="#3A3A39" transform="translate(0,0)"/>
<path d="" fill="#3A3A39" transform="translate(0,0)"/>
<path d="" fill="#3A3A39" transform="translate(0,0)"/>
<path d="" fill="#3A3A39" transform="translate(0,0)"/>
<path d="" fill="#3F3E3E" transform="translate(0,0)"/>
<path d="" fill="#3A3A39" transform="translate(0,0)"/>
<path d="" fill="#3A3A39" transform="translate(0,0)"/>
<path d="" fill="#4A4A49" transform="translate(0,0)"/>
<path d="" fill="#515150" transform="translate(0,0)"/>
<path d="" fill="#515150" transform="translate(0,0)"/>
<path d="" fill="#3F3E3E" transform="translate(0,0)"/>
<path d="" fill="#424241" transform="translate(0,0)"/>
<path d="" fill="#3A3A39" transform="translate(0,0)"/>
<path d="" fill="#3A3A39" transform="translate(0,0)"/>
<path d="" fill="#3F3E3E" transform="translate(0,0)"/>
<path d="" fill="#3F3E3E" transform="translate(0,0)"/>
<path d="" fill="#3F3E3E" transform="translate(0,0)"/>
<path d="" fill="#3F3E3E" transform="translate(0,0)"/>
<path d="" fill="#424241" transform="translate(0,0)"/>
<path d="" fill="#3F3E3E" transform="translate(0,0)"/>
<path d="" fill="#4E4D4C" transform="translate(0,0)"/>
<path d="" fill="#515150" transform="translate(0,0)"/>
<path d="" fill="#3F3E3E" transform="translate(0,0)"/>
<path d="" fill="#515150" transform="translate(0,0)"/>
<path d="" fill="#545453" transform="translate(0,0)"/>
<path d="" fill="#545453" transform="translate(0,0)"/>
<path d="" fill="#3A3A39" transform="translate(0,0)"/>
<path d="" fill="#424241" transform="translate(0,0)"/>
<path d="" fill="#4E4D4C" transform="translate(0,0)"/>
<path d="" fill="#3F3E3E" transform="translate(0,0)"/>
<path d="" fill="#424241" transform="translate(0,0)"/>
<path d="" fill="#424241" transform="translate(0,0)"/>
<path d="" fill="#4A4A49" transform="translate(0,0)"/>
<path d="" fill="#424241" transform="translate(0,0)"/>
<path d="" fill="#3F3E3E" transform="translate(0,0)"/>
<path d="" fill="#3F3E3E" transform="translate(0,0)"/>
<path d="" fill="#424241" transform="translate(0,0)"/>
<path d="" fill="#424241" transform="translate(0,0)"/>
<path d="" fill="#464645" transform="translate(0,0)"/>
<path d="" fill="#424241" transform="translate(0,0)"/>
<path d="" fill="#464645" transform="translate(0,0)"/>
<path d="" fill="#4A4A49" transform="translate(0,0)"/>
<path d="" fill="#464645" transform="translate(0,0)"/>
<path d="" fill="#464645" transform="translate(0,0)"/>
<path d="" fill="#3F3E3E" transform="translate(0,0)"/>
<path d="" fill="#424241" transform="translate(0,0)"/>
<path d="" fill="#3F3E3E" transform="translate(0,0)"/>
<path d="" fill="#3A3A39" transform="translate(0,0)"/>
<path d="" fill="#424241" transform="translate(0,0)"/>
<path d="" fill="#4E4D4C" transform="translate(0,0)"/>
<path d="" fill="#464645" transform="translate(0,0)"/>
<path d="" fill="#464645" transform="translate(0,0)"/>
<path d="" fill="#424241" transform="translate(0,0)"/>
<path d="" fill="#3F3E3E" transform="translate(0,0)"/>
<path d="" fill="#464645" transform="translate(0,0)"/>
<path d="" fill="#3F3E3E" transform="translate(0,0)"/>
<path d="" fill="#464645" transform="translate(0,0)"/>
<path d="" fill="#4E4D4C" transform="translate(0,0)"/>
<path d="" fill="#464645" transform="translate(0,0)"/>
<path d="" fill="#4A4A49" transform="translate(0,0)"/>
<path d="" fill="#424241" transform="translate(0,0)"/>
<path d="" fill="#3F3E3E" transform="translate(0,0)"/>
<path d="" fill="#4A4A49" transform="translate(0,0)"/>
<path d="" fill="#464645" transform="translate(0,0)"/>
<path d="" fill="#464645" transform="translate(0,0)"/>
<path d="" fill="#424241" transform="translate(0,0)"/>
<path d="" fill="#464645" transform="translate(0,0)"/>
<path d="" fill="#464645" transform="translate(0,0)"/>
<path d="" fill="#3A3A39" transform="translate(0,0)"/>
<path d="" fill="#424241" transform="translate(0,0)"/>
<path d="" fill="#424241" transform="translate(0,0)"/>
<path d="" fill="#4A4A49" transform="translate(0,0)"/>
<path d="" fill="#424241" transform="translate(0,0)"/>
<path d="" fill="#464645" transform="translate(0,0)"/>
<path d="" fill="#464645" transform="translate(0,0)"/>
<path d="" fill="#3A3A39" transform="translate(0,0)"/>
<path d="" fill="#464645" transform="translate(0,0)"/>
<path d="" fill="#464645" transform="translate(0,0)"/>
<path d="" fill="#4A4A49" transform="translate(0,0)"/>
<path d="" fill="#3A3A39" transform="translate(0,0)"/>
<path d="" fill="#464645" transform="translate(0,0)"/>
<path d="" fill="#3F3E3E" transform="translate(0,0)"/>
<path d="" fill="#424241" transform="translate(0,0)"/>
<path d="" fill="#4A4A49" transform="translate(0,0)"/>
<path d="" fill="#464645" transform="translate(0,0)"/>
<path d="" fill="#4E4D4C" transform="translate(0,0)"/>
<path d="" fill="#424241" transform="translate(0,0)"/>
<path d="" fill="#424241" transform="translate(0,0)"/>
<path d="" fill="#3F3E3E" transform="translate(0,0)"/>
<path d="" fill="#424241" transform="translate(0,0)"/>
<path d="" fill="#3F3E3E" transform="translate(0,0)"/>
<path d="" fill="#515150" transform="translate(0,0)"/>
<path d="" fill="#3A3A39" transform="translate(0,0)"/>
<path d="" fill="#424241" transform="translate(0,0)"/>
<path d="" fill="#424241" transform="translate(0,0)"/>
<path d="" fill="#4A4A49" transform="translate(0,0)"/>
<path d="" fill="#464645" transform="translate(0,0)"/>
<path d="" fill="#464645" transform="translate(0,0)"/>
<path d="" fill="#3F3E3E" transform="translate(0,0)"/>
<path d="" fill="#464645" transform="translate(0,0)"/>
<path d="" fill="#515150" transform="translate(0,0)"/>
<path d="" fill="#464645" transform="translate(0,0)"/>
<path d="" fill="#4A4A49" transform="translate(0,0)"/>
<path d="" fill="#464645" transform="translate(0,0)"/>
<path d="" fill="#464645" transform="translate(0,0)"/>
<path d="" fill="#424241" transform="translate(0,0)"/>
<path d="" fill="#424241" transform="translate(0,0)"/>
<path d="" fill="#424241" transform="translate(0,0)"/>
<path d="" fill="#464645" transform="translate(0,0)"/>
<path d="" fill="#464645" transform="translate(0,0)"/>
<path d="" fill="#464645" transform="translate(0,0)"/>
<path d="" fill="#464645" transform="translate(0,0)"/>
<path d="" fill="#464645" transform="translate(0,0)"/>
<path d="" fill="#4E4D4C" transform="translate(0,0)"/>
<path d="" fill="#4A4A49" transform="translate(0,0)"/>
<path d="" fill="#4A4A49" transform="translate(0,0)"/>
<path d="" fill="#4A4A49" transform="translate(0,0)"/>
<path d="" fill="#515150" transform="translate(0,0)"/>
<path d="" fill="#4E4D4C" transform="translate(0,0)"/>
<path d="" fill="#515150" transform="translate(0,0)"/>
<path d="" fill="#4A4A49" transform="translate(0,0)"/>
<path d="" fill="#4A4A49" transform="translate(0,0)"/>
<path d="" fill="#515150" transform="translate(0,0)"/>
<path d="" fill="#4A4A49" transform="translate(0,0)"/>
<path d="" fill="#4E4D4C" transform="translate(0,0)"/>
<path d="" fill="#515150" transform="translate(0,0)"/>
<path d="" fill="#4E4D4C" transform="translate(0,0)"/>
<path d="" fill="#464645" transform="translate(0,0)"/>
<path d="" fill="#4A4A49" transform="translate(0,0)"/>
<path d="" fill="#515150" transform="translate(0,0)"/>
<path d="" fill="#4E4D4C" transform="translate(0,0)"/>
<path d="" fill="#4E4D4C" transform="translate(0,0)"/>
<path d="" fill="#464645" transform="translate(0,0)"/>
<path d="" fill="#4A4A49" transform="translate(0,0)"/>
<path d="" fill="#4E4D4C" transform="translate(0,0)"/>
<path d="" fill="#515150" transform="translate(0,0)"/>
<path d="" fill="#545453" transform="translate(0,0)"/>
<path d="" fill="#4A4A49" transform="translate(0,0)"/>
<path d="" fill="#464645" transform="translate(0,0)"/>
<path d="" fill="#545453" transform="translate(0,0)"/>
<path d="" fill="#545453" transform="translate(0,0)"/>
<path d="" fill="#515150" transform="translate(0,0)"/>
<path d="" fill="#545453" transform="translate(0,0)"/>
<path d="" fill="#515150" transform="translate(0,0)"/>
<path d="" fill="#4E4D4C" transform="translate(0,0)"/>
<path d="" fill="#545453" transform="translate(0,0)"/>
<path d="" fill="#4E4D4C" transform="translate(0,0)"/>
<path d="" fill="#515150" transform="translate(0,0)"/>
<path d="" fill="#515150" transform="translate(0,0)"/>
<path d="" fill="#515150" transform="translate(0,0)"/>
<path d="" fill="#545453" transform="translate(0,0)"/>
<path d="" fill="#545453" transform="translate(0,0)"/>
<path d="" fill="#545453" transform="translate(0,0)"/>
<path d="" fill="#515150" transform="translate(0,0)"/>
<path d="" fill="#545453" transform="translate(0,0)"/>
<path d="" fill="#575756" transform="translate(0,0)"/>
<path d="" fill="#545453" transform="translate(0,0)"/>
<path d="" fill="#575756" transform="translate(0,0)"/>
<path d="" fill="#5C5C5A" transform="translate(0,0)"/>
<path d="" fill="#575756" transform="translate(0,0)"/>
<path d="" fill="#575756" transform="translate(0,0)"/>
<path d="" fill="#575756" transform="translate(0,0)"/>
<path d="" fill="#575756" transform="translate(0,0)"/>
<path d="" fill="#515150" transform="translate(0,0)"/>
<path d="" fill="#515150" transform="translate(0,0)"/>
<path d="" fill="#5C5C5A" transform="translate(0,0)"/>
<path d="" fill="#575756" transform="translate(0,0)"/>
<path d="" fill="#5C5C5A" transform="translate(0,0)"/>
<path d="" fill="#515150" transform="translate(0,0)"/>
<path d="" fill="#545453" transform="translate(0,0)"/>
<path d="" fill="#545453" transform="translate(0,0)"/>
<path d="" fill="#575756" transform="translate(0,0)"/>
<path d="" fill="#575756" transform="translate(0,0)"/>
<path d="" fill="#5C5C5A" transform="translate(0,0)"/>
<?xml version="1.0" encoding="UTF-8"?>
<svg xmlns="http://www.w3.org/2000/svg"
     version="1.2" baseProfile="tiny"
     width="256" height="256" viewBox="0 0 256 256">

  <!-- White circle background (BIMI requirement) -->
  <circle cx="128" cy="128" r="128" fill="#FFFFFF"/>

  <!-- Your portrait SVG -->
  <g transform="translate(40,40) scale(0.7)" fill="#000000">
    <!-- Paste the paths from Biraj.svg here -->
  </g>

</svg>
</svg>
